<svg width="31" height="30" viewBox="0 0 31 30" fill="none" xmlns="http://www.w3.org/2000/svg">
<path d="M10.9799 13.9816C12.3826 12.5789 14.8291 12.5789 16.2319 13.9816L17.1072 14.857L18.8579 13.1063L17.9825 12.231C16.815 11.0622 15.26 10.4172 13.6059 10.4172C11.9518 10.4172 10.3967 11.0622 9.22921 12.231L6.60198 14.857C5.44349 16.0192 4.79297 17.5933 4.79297 19.2343C4.79297 20.8752 5.44349 22.4493 6.60198 23.6115C7.1763 24.1867 7.8586 24.6427 8.60969 24.9533C9.36078 25.2639 10.1658 25.4231 10.9786 25.4216C11.7916 25.4233 12.597 25.2643 13.3483 24.9536C14.0996 24.643 14.7821 24.1869 15.3565 23.6115L16.2319 22.7362L14.4812 20.9855L13.6059 21.8609C12.9082 22.5555 11.9638 22.9454 10.9793 22.9454C9.99476 22.9454 9.05035 22.5555 8.35264 21.8609C7.65746 21.1635 7.26709 20.219 7.26709 19.2343C7.26709 18.2496 7.65746 17.305 8.35264 16.6076L10.9799 13.9816Z" fill="#555555"/>
<path d="M15.3568 6.10221L14.4815 6.97754L16.2321 8.7282L17.1075 7.85287C17.8052 7.15829 18.7496 6.76834 19.7341 6.76834C20.7186 6.76834 21.663 7.15829 22.3607 7.85287C23.0559 8.55025 23.4462 9.49479 23.4462 10.4795C23.4462 11.4642 23.0559 12.4087 22.3607 13.1061L19.7335 15.7321C18.3307 17.1349 15.8842 17.1349 14.4815 15.7321L13.6061 14.8568L11.8555 16.6074L12.7308 17.4828C13.8983 18.6515 15.4534 19.2966 17.1075 19.2966C18.7616 19.2966 20.3166 18.6515 21.4841 17.4828L24.1114 14.8568C25.2698 13.6945 25.9204 12.1205 25.9204 10.4795C25.9204 8.8385 25.2698 7.26443 24.1114 6.10221C22.9495 4.94311 21.3753 4.29218 19.7341 4.29218C18.0929 4.29218 16.5187 4.94311 15.3568 6.10221Z" fill="#555555"/>
</svg>
