<svg width="32" height="31" viewBox="0 0 32 31" fill="none" xmlns="http://www.w3.org/2000/svg">
<path d="M11.7243 16.0345H11.735M16.0002 16.0345H16.0109M20.2761 16.0345H20.2868M11.6174 24.5862C13.6576 25.6328 16.0046 25.9163 18.2353 25.3856C20.466 24.8549 22.4338 23.5449 23.7841 21.6916C25.1345 19.8384 25.7785 17.5639 25.6001 15.2778C25.4218 12.9918 24.4328 10.8446 22.8114 9.22324C21.1901 7.60186 19.0429 6.61289 16.7569 6.43455C14.4708 6.25621 12.1963 6.90023 10.343 8.25054C8.48983 9.60086 7.17984 11.5687 6.64913 13.7994C6.11842 16.0301 6.4019 18.377 7.44848 20.4172L5.31055 26.7241L11.6174 24.5862Z" stroke="#555555" stroke-width="2.13793" stroke-linecap="round" stroke-linejoin="round"/>
</svg>
