<svg>
<g xmlns="http://www.w3.org/2000/svg">
    <path class="fil1" d="M9857.16 2594.72c-142.7,0 -256.86,84.48 -256.86,220.33 0,116.44 86.76,173.53 204.35,219.19l47.95 18.27c87.9,34.25 127.86,61.65 127.86,121.01 0,77.63 -76.48,99.32 -132.43,99.32 -43.38,0 -97.04,-15.98 -136.99,-66.22 -15.98,-21.69 -38.81,-43.38 -73.06,-43.38 -42.24,0 -62.79,33.11 -62.79,65.07 0,34.25 20.55,60.5 31.96,74.2 55.94,70.78 150.69,107.31 240.88,107.31 132.43,0 288.83,-78.77 288.83,-236.31 0,-109.59 -71.92,-174.67 -250.01,-242.02l-44.52 -17.12c-68.5,-26.26 -89.04,-60.51 -89.04,-98.18 0,-50.23 39.96,-85.62 109.59,-85.62 50.23,0 77.63,18.26 109.59,51.37 14.84,15.98 37.67,30.83 61.65,30.83 36.53,0 63.93,-27.4 63.93,-61.65 0,-22.83 -11.42,-43.38 -33.11,-68.5 -45.67,-50.23 -107.31,-87.9 -207.77,-87.9z"/>
    <path id="1" class="fil1" d="M10571.8 2801.35c-81.06,0 -146.13,43.38 -168.96,97.04l0 -19.41c0,-39.96 -34.25,-74.2 -75.35,-74.2 -39.96,0 -76.49,34.25 -76.49,74.2l0 673.55c0,41.1 34.25,74.2 75.35,74.2 39.96,0 75.35,-33.11 75.35,-74.2l0 -205.49c1.14,-3.43 1.14,-7.99 1.14,-12.56l0 -21.69c9.13,35.39 69.64,97.04 168.96,97.04 125.58,0 276.27,-97.04 276.27,-304.81 0,-203.2 -151.83,-303.67 -276.27,-303.67zm-27.4 479.47c-63.93,0 -148.41,-46.8 -148.41,-175.81 0,-129 84.48,-175.81 148.41,-175.81 75.35,0 154.12,59.37 154.12,175.81 0,117.59 -78.77,175.81 -154.12,175.81z"/>
    <path class="fil1" d="M11960.09 3293.39c-12.56,0 -30.82,4.56 -43.38,4.56 -25.12,0 -36.53,-17.12 -36.53,-50.23l0 -302.53 75.34 0c37.67,0 60.51,-23.97 60.51,-58.22 0,-35.39 -22.83,-59.36 -60.51,-59.36l-75.34 0 0 -77.63c0,-41.1 -33.11,-75.35 -74.2,-75.35 -41.1,0 -75.35,34.25 -75.35,75.35l0 77.63 -33.11 0c-36.53,0 -60.51,23.97 -60.51,59.36 0,34.25 23.98,58.22 60.51,58.22l33.11 0 0 297.96c0,158.69 78.77,183.8 156.4,183.8 77.63,0 129,-27.4 129,-79.91 0,-35.39 -21.69,-55.94 -55.94,-53.65z"/>
    <path id="1" class="fil1" d="M12268.32 3352.75l0 -672.41c0,-39.96 -34.25,-74.2 -74.2,-74.2 -41.1,0 -75.35,34.25 -75.35,74.2l0 672.41c0,41.1 34.25,74.2 75.35,74.2 39.96,0 74.2,-33.11 74.2,-74.2z"/>
    <path id="2" class="fil1" d="M12481.8 2743.13c39.96,0 75.35,-34.25 75.35,-74.2 0,-39.96 -35.39,-74.2 -75.35,-74.2 -41.1,0 -76.49,34.25 -76.49,74.2 0,39.96 35.39,74.2 76.49,74.2zm0 81.06c-41.1,0 -75.35,34.25 -75.35,75.35l0 452.07c0,42.24 34.25,76.49 75.35,76.49 39.96,0 74.2,-34.25 74.2,-76.49l0 -452.07c0,-41.1 -34.25,-75.35 -74.2,-75.35z"/>
    <path id="3" class="fil1" d="M13268.37 2898.39c0,-39.96 -36.53,-74.2 -76.49,-74.2 -41.1,0 -75.35,34.25 -75.35,74.2l0 19.41c-22.83,-53.65 -87.9,-97.04 -168.96,-97.04 -124.44,0 -276.27,100.46 -276.27,303.67 0,207.77 150.69,304.81 276.27,304.81 99.32,0 159.82,-61.65 168.96,-97.04l0 77.63c0,67.35 -51.37,116.44 -143.84,116.44 -51.37,0 -90.19,-13.7 -113.02,-19.41 -14.84,-4.57 -23.97,-5.71 -30.82,-5.71 -31.96,0 -59.36,25.11 -59.36,59.36 0,27.4 17.12,50.23 49.09,63.93 25.11,11.42 82.19,30.82 152.97,30.82 121.01,0 294.54,-59.36 294.54,-245.44l0 -38.81c1.14,-5.7 2.28,-11.41 2.28,-17.12l0 -455.5zm-293.39 401.84c-75.35,0 -154.11,-58.22 -154.11,-175.81 0,-116.44 78.77,-175.81 154.11,-175.81 63.93,0 148.41,46.81 148.41,175.81 0,129 -84.48,175.81 -148.41,175.81z"/>
    <path id="4" class="fil1" d="M13748.98 2821.91c-123.29,0 -190.65,93.61 -195.21,134.71l0 -276.27c0,-39.96 -34.25,-74.2 -74.2,-74.2 -41.1,0 -75.35,34.25 -75.35,74.2l0 672.41c0,41.1 34.25,74.2 75.35,74.2 39.96,0 74.2,-33.11 74.2,-74.2l0 -275.13c4.57,-31.96 38.81,-127.86 141.56,-127.86 67.35,0 121.01,42.24 121.01,144.98l0 258c0,41.1 34.25,74.2 74.2,74.2 41.1,0 75.35,-33.11 75.35,-74.2l0 -258c0,-197.5 -101.6,-272.84 -216.91,-272.84z"/>
    <path id="5" class="fil1" d="M14368.88 3293.39c-12.56,0 -30.82,4.56 -43.38,4.56 -25.12,0 -36.53,-17.12 -36.53,-50.23l0 -302.53 75.34 0c37.67,0 60.51,-23.97 60.51,-58.22 0,-35.39 -22.83,-59.36 -60.51,-59.36l-75.34 0 0 -77.63c0,-41.1 -33.11,-75.35 -74.2,-75.35 -41.1,0 -75.35,34.25 -75.35,75.35l0 77.63 -33.11 0c-36.53,0 -60.51,23.97 -60.51,59.36 0,34.25 23.98,58.22 60.51,58.22l33.11 0 0 297.96c0,158.69 78.77,183.8 156.4,183.8 77.63,0 129,-27.4 129,-79.91 0,-35.39 -21.69,-55.94 -55.94,-53.65z"/>
    <g>
     <circle class="fil2" cx="11285.84" cy="3125" r="295"/>
     <circle class="fil3" cx="11214.49" cy="3125" r="295.06"/>
    </g>
   </g>
</svg>